<svg width="28" height="28" viewBox="0 0 28 28" fill="none" xmlns="http://www.w3.org/2000/svg">
<g clip-path="url(#clip0)">
<path d="M25.3254 22.23C27.0601 19.8501 28 16.9862 28 13.9994C28 6.26215 21.7385 0 14 0C6.26236 0 0 6.26129 0 13.9994C0 16.9854 0.939514 19.8484 2.67307 22.2279C8.25845 14.5452 19.7321 14.5383 25.3254 22.23ZM9.07812 8.25739C9.07812 5.54373 11.2861 3.33572 14 3.33572C16.7139 3.33572 18.9219 5.54373 18.9219 8.25739V9.89801C18.9219 12.6119 16.7139 14.8197 14 14.8197C11.2861 14.8197 9.07812 12.6119 9.07812 9.89801V8.25739Z" fill="white" fill-opacity="0.8"/>
<path d="M14 13.179C15.8094 13.179 17.2812 11.7072 17.2812 9.89798V8.25735C17.2812 6.44818 15.8094 4.97632 14 4.97632C12.1906 4.97632 10.7188 6.44818 10.7188 8.25735V9.89798C10.7188 11.7072 12.1906 13.179 14 13.179Z" fill="white" fill-opacity="0.8"/>
<path d="M3.76019 23.5445C9.29944 29.4837 18.6991 29.4882 24.2434 23.5405C19.3557 16.2784 8.67416 16.3115 3.76019 23.5445Z" fill="white" fill-opacity="0.8"/>
</g>
<defs>
<clipPath id="clip0">
<rect width="28" height="28" fill="white"/>
</clipPath>
</defs>
</svg>
