<svg width="22" height="16" viewBox="0 0 22 16" fill="none" xmlns="http://www.w3.org/2000/svg">
<path d="M16.8585 14.1318H3.89987C-2.20279 12.7825 -0.156127 3.5265 5.94521 4.87584C5.94521 -0.0881632 15.1052 -0.0881632 15.1052 4.87584C21.4612 3.6705 23.2145 12.9278 16.8585 14.1318Z" fill="#EFEEEB"/>
<path d="M20.3669 11.0662C20.9109 9.5089 20.5669 7.69423 19.4909 6.4449C18.4522 5.2369 16.9096 4.7569 15.1456 5.09023L14.8856 5.13956V4.87556C14.8856 2.46756 12.6256 1.37156 10.5242 1.37156C9.3709 1.37156 8.2989 1.68756 7.50557 2.2609C6.62823 2.89423 6.16423 3.79823 6.16423 4.87556V5.14756L5.89756 5.0889C2.90423 4.42756 1.02957 6.4129 0.560232 8.53823C0.302899 9.69956 0.452231 10.8649 0.978898 11.8209C1.5669 12.8876 2.58423 13.6102 3.9229 13.9129H16.8376C18.5896 13.5742 19.8429 12.5649 20.3669 11.0662ZM3.85223 14.3462C0.560232 13.6182 -0.383768 10.7769 0.132232 8.44356C0.410899 7.17956 1.09756 6.09423 2.06423 5.38623C3.09356 4.63156 4.35623 4.3649 5.7349 4.61023C5.8909 2.08623 8.2909 0.932896 10.5242 0.932896C12.7616 0.932896 15.1629 2.08756 15.3162 4.6169C17.1362 4.34356 18.7282 4.88623 19.8229 6.15823C21.0002 7.5249 21.3762 9.5089 20.7802 11.2116C20.2016 12.8689 18.8229 13.9822 16.8989 14.3476L3.8749 14.3516L3.85223 14.3462Z" fill="black"/>
<path d="M16.6961 11.0138C16.6961 16.7298 4.28943 16.7298 4.28943 11.0138C6.67076 11.0138 8.44676 12.0538 9.6161 14.1324C8.6161 11.8724 8.96143 9.71245 10.4921 7.64178C11.8961 9.57111 12.4001 11.6698 10.9801 14.1324C12.3454 11.8284 14.1828 10.6284 16.6961 11.0138Z" fill="black"/>
</svg>
